<?xml version="1.0" encoding="utf-8"?>
<!-- Generator: Adobe Illustrator 19.2.0, SVG Export Plug-In . SVG Version: 6.00 Build 0)  -->
<svg version="1.1" id="Capa_1" xmlns="http://www.w3.org/2000/svg" xmlns:xlink="http://www.w3.org/1999/xlink" x="0px" y="0px"
	 viewBox="0 0 87 42" style="enable-background:new 0 0 87 42;" xml:space="preserve">
<style type="text/css">
	.st0{fill:#FFFFFF;}
	.st1{clip-path:url(#SVGID_2_);fill:#FFFFFF;}
	.st2{clip-path:url(#SVGID_4_);fill:#FFFFFF;}
	.st3{fill:none;stroke:#F3F3F3;stroke-width:0.15;stroke-miterlimit:10;}
</style>
<path class="st0" d="M56,28c-0.2,0.6-0.6,1.1-1,1.6c-0.4,0.4-0.9,0.8-1.5,1c-0.6,0.2-1.2,0.3-1.8,0.3c-0.3,0-0.6,0-0.9-0.1
	c-0.3-0.1-0.6-0.1-0.8-0.2c-0.3-0.1-0.5-0.2-0.7-0.3c-0.2-0.1-0.4-0.2-0.5-0.3c-0.1-0.1-0.1-0.2-0.1-0.3l0.4-0.9
	c0.1-0.2,0.2-0.2,0.4-0.1c0.2,0.2,0.6,0.3,1,0.5c0.4,0.1,0.8,0.2,1.1,0.2c0.9,0,1.6-0.3,2.2-0.9c0.5-0.6,0.8-1.4,0.8-2.4
	c0-0.9-0.2-1.6-0.7-2.3c-0.5-0.6-1-1.2-1.7-1.8c0.1,0.1,0,0,0,0c-0.1-0.1-0.1-0.1-0.2-0.2v0c-0.3-0.2-0.6-0.5-0.9-0.7
	c-0.3-0.3-0.7-0.6-1-1c-0.3-0.4-0.6-0.8-0.8-1.3c-0.2-0.5-0.3-1-0.3-1.6c0-0.7,0.1-1.3,0.3-1.9c0.2-0.6,0.5-1,0.9-1.4
	c0.4-0.4,0.9-0.7,1.4-0.9c0.5-0.2,1.1-0.3,1.7-0.3c0.6,0,1.1,0.1,1.5,0.2c0.4,0.2,0.7,0.3,0.9,0.5c0,0,0.1,0.1,0.1,0.1
	c0,0.1,0,0.1,0,0.2l-0.4,1c0,0.1-0.1,0.2-0.2,0.2c-0.1,0-0.2,0-0.3-0.1c-0.2-0.1-0.4-0.3-0.8-0.4c-0.3-0.1-0.7-0.2-1.1-0.2
	c-0.4,0-0.8,0.1-1.1,0.2c-0.3,0.2-0.6,0.4-0.8,0.6c-0.2,0.2-0.4,0.5-0.5,0.8c-0.1,0.3-0.1,0.6-0.1,0.9c0,0.5,0.1,0.9,0.2,1.3
	c0.1,0.4,0.3,0.7,0.5,1c0.2,0.3,0.5,0.6,0.8,0.8c0.3,0.3,0.7,0.5,1,0.8c1,0.8,1.8,1.6,2.3,2.4c0.5,0.8,0.8,1.8,0.8,2.8
	C56.4,26.7,56.3,27.4,56,28"/>
<path class="st0" d="M59.3,30.7h-1.1c-0.2,0-0.3-0.1-0.3-0.3V13c0-0.2,0.1-0.3,0.3-0.3h1.1c0.2,0,0.3,0.1,0.3,0.3v17.4
	C59.6,30.6,59.5,30.7,59.3,30.7"/>
<path class="st0" d="M68.8,14.2h-3v16.2c0,0.2-0.1,0.3-0.3,0.3h-1.1c-0.2,0-0.3-0.1-0.3-0.3V14.2h-3c-0.2,0-0.3-0.1-0.3-0.3v-1
	c0-0.2,0.1-0.3,0.3-0.3h7.6c0.2,0,0.3,0.1,0.3,0.3v1C69.1,14.1,69,14.2,68.8,14.2"/>
<path class="st0" d="M76.9,30.7h-6.4c-0.2,0-0.3-0.1-0.3-0.3V13c0-0.2,0.1-0.3,0.3-0.3H76c0.2,0,0.3,0.1,0.3,0.3v1
	c0,0.2-0.1,0.3-0.3,0.3h-4.1v6.2H76c0.2,0,0.3,0.1,0.3,0.3v1c0,0.2-0.1,0.3-0.3,0.3h-4.1v7.1h5c0.2,0,0.3,0.1,0.3,0.3v1
	C77.2,30.6,77.1,30.7,76.9,30.7"/>
<g>
	<defs>
		<path id="SVGID_1_" d="M30.2,12.3c-0.8,0-1.6,0.2-2.4,0.5c-0.8,0.3-1.5,0.8-2.1,1.4l-4.2,4.2l-1.2,1.2h5.4l2.7-2.7
			c0.5-0.5,1.1-0.7,1.7-0.7c0.7,0,1.3,0.2,1.8,0.7l1.9,1.9c0.5,0.5,0.8,1.1,0.8,1.8c0,0.7-0.3,1.3-0.8,1.8L19.6,36.5H25l11.5-11.5
			c0.6-0.6,1.1-1.3,1.4-2.1c0.3-0.8,0.5-1.6,0.5-2.4c0-0.8-0.2-1.6-0.5-2.4c-0.3-0.8-0.8-1.5-1.4-2.1l-1.9-1.8l0,0
			c-0.6-0.6-1.3-1.1-2.1-1.3C31.9,12.4,31.1,12.3,30.2,12.3C30.3,12.3,30.2,12.3,30.2,12.3"/>
	</defs>
	<use xlink:href="#SVGID_1_"  style="overflow:visible;fill:#FFFFFF;"/>
	<clipPath id="SVGID_2_">
		<use xlink:href="#SVGID_1_"  style="overflow:visible;"/>
	</clipPath>
	<rect x="19.6" y="12.3" class="st1" width="18.8" height="24.2"/>
</g>
<g>
	<defs>
		<path id="SVGID_3_" d="M18.9,5.5L8.8,15.2c-0.8,0.9-1.4,1.9-1.7,2.8c-0.3,0.9-0.4,1.8-0.2,2.9c0.2,1.1,0.8,2.2,1.9,3.3l1.4,1.4
			l0.4,0.4l0,0c0.6,0.6,1.3,1.1,2.1,1.3c0.8,0.3,1.6,0.4,2.4,0.4c0.8,0,1.6-0.1,2.4-0.4c0.8-0.3,1.5-0.7,2.1-1.3l0,0l5.6-5.6h-5.4
			l-2.9,2.9l0,0c-0.5,0.5-1.1,0.7-1.7,0.7c-0.7,0-1.3-0.2-1.7-0.7L13,22.9l-1.4-1.4c-0.4-0.4-0.7-0.8-0.7-1.3
			c-0.1-0.4,0-0.8,0.1-1.2c0.2-0.4,0.4-0.8,0.7-1.1L23.1,6.8l1.1-1.1l0.1-0.1H18.9z"/>
	</defs>
	<use xlink:href="#SVGID_3_"  style="overflow:visible;fill:#FFFFFF;"/>
	<clipPath id="SVGID_4_">
		<use xlink:href="#SVGID_3_"  style="overflow:visible;"/>
	</clipPath>
	<rect x="6.7" y="5.5" class="st2" width="18.5" height="22.3"/>
</g>
<line class="st3" x1="43.3" y1="12.6" x2="43.3" y2="31.9"/>
</svg>
