<?xml version="1.0" encoding="UTF-8" standalone="no"?>
<!-- Generator: Adobe Illustrator 19.2.0, SVG Export Plug-In . SVG Version: 6.00 Build 0)  -->

<svg
   version="1.1"
   id="Capa_1"
   x="0px"
   y="0px"
   viewBox="0 0 36.579052 31"
   xml:space="preserve"
   sodipodi:docname="logo.svg"
   inkscape:version="1.1.1 (3bf5ae0d25, 2021-09-20)"
   width="36.579052"
   height="31"
   xmlns:inkscape="http://www.inkscape.org/namespaces/inkscape"
   xmlns:sodipodi="http://sodipodi.sourceforge.net/DTD/sodipodi-0.dtd"
   xmlns:xlink="http://www.w3.org/1999/xlink"
   xmlns="http://www.w3.org/2000/svg"
   xmlns:svg="http://www.w3.org/2000/svg"><defs
   id="defs41" /><sodipodi:namedview
   id="namedview39"
   pagecolor="#ffffff"
   bordercolor="#666666"
   borderopacity="1.0"
   inkscape:pageshadow="2"
   inkscape:pageopacity="0.0"
   inkscape:pagecheckerboard="0"
   showgrid="false"
   inkscape:zoom="18.057471"
   inkscape:cx="16.142903"
   inkscape:cy="15.506047"
   inkscape:window-width="1920"
   inkscape:window-height="1000"
   inkscape:window-x="-11"
   inkscape:window-y="-11"
   inkscape:window-maximized="1"
   inkscape:current-layer="Capa_1"
   fit-margin-top="0"
   fit-margin-left="0"
   fit-margin-right="0"
   fit-margin-bottom="0" />
<style
   type="text/css"
   id="style2">
	.st0{fill:#FFFFFF;}
	.st1{clip-path:url(#SVGID_2_);fill:#FFFFFF;}
	.st2{clip-path:url(#SVGID_4_);fill:#FFFFFF;}
	.st3{fill:none;stroke:#F3F3F3;stroke-width:0.15;stroke-miterlimit:10;}
</style>




<g
   id="g22"
   transform="translate(-6.7959482,-5.5)">
	<defs
   id="defs13">
		<path
   id="SVGID_1_"
   d="m 30.2,12.3 c -0.8,0 -1.6,0.2 -2.4,0.5 -0.8,0.3 -1.5,0.8 -2.1,1.4 l -4.2,4.2 -1.2,1.2 h 5.4 l 2.7,-2.7 c 0.5,-0.5 1.1,-0.7 1.7,-0.7 0.7,0 1.3,0.2 1.8,0.7 l 1.9,1.9 c 0.5,0.5 0.8,1.1 0.8,1.8 0,0.7 -0.3,1.3 -0.8,1.8 L 19.6,36.5 H 25 L 36.5,25 c 0.6,-0.6 1.1,-1.3 1.4,-2.1 0.3,-0.8 0.5,-1.6 0.5,-2.4 0,-0.8 -0.2,-1.6 -0.5,-2.4 -0.3,-0.8 -0.8,-1.5 -1.4,-2.1 l -1.9,-1.8 v 0 c -0.6,-0.6 -1.3,-1.1 -2.1,-1.3 -0.6,-0.5 -1.4,-0.6 -2.3,-0.6 0.1,0 0,0 0,0" />
	</defs>
	<use
   xlink:href="#SVGID_1_"
   style="overflow:visible;fill:#ffffff"
   id="use15"
   x="0"
   y="0"
   width="100%"
   height="100%" />
	<clipPath
   id="SVGID_2_">
		<use
   xlink:href="#SVGID_1_"
   style="overflow:visible"
   id="use17"
   x="0"
   y="0"
   width="100%"
   height="100%" />
	</clipPath>
	<rect
   x="19.6"
   y="12.3"
   class="st1"
   width="18.799999"
   height="24.200001"
   clip-path="url(#SVGID_2_)"
   id="rect20" />
</g>
<g
   id="g34"
   transform="translate(-6.7959482,-5.5)">
	<defs
   id="defs25">
		<path
   id="SVGID_3_"
   d="M 18.9,5.5 8.8,15.2 C 8,16.1 7.4,17.1 7.1,18 6.8,18.9 6.7,19.8 6.9,20.9 7.1,22 7.7,23.1 8.8,24.2 l 1.4,1.4 0.4,0.4 v 0 c 0.6,0.6 1.3,1.1 2.1,1.3 0.8,0.3 1.6,0.4 2.4,0.4 0.8,0 1.6,-0.1 2.4,-0.4 C 18.3,27 19,26.6 19.6,26 v 0 l 5.6,-5.6 h -5.4 l -2.9,2.9 v 0 C 16.4,23.8 15.8,24 15.2,24 14.5,24 13.9,23.8 13.5,23.3 L 13,22.9 11.6,21.5 c -0.4,-0.4 -0.7,-0.8 -0.7,-1.3 -0.1,-0.4 0,-0.8 0.1,-1.2 0.2,-0.4 0.4,-0.8 0.7,-1.1 L 23.1,6.8 24.2,5.7 24.3,5.6 h -5.4 z" />
	</defs>
	<use
   xlink:href="#SVGID_3_"
   style="overflow:visible;fill:#ffffff"
   id="use27"
   x="0"
   y="0"
   width="100%"
   height="100%" />
	<clipPath
   id="SVGID_4_">
		<use
   xlink:href="#SVGID_3_"
   style="overflow:visible"
   id="use29"
   x="0"
   y="0"
   width="100%"
   height="100%" />
	</clipPath>
	<rect
   x="6.6999998"
   y="5.5"
   class="st2"
   width="18.5"
   height="22.299999"
   clip-path="url(#SVGID_4_)"
   id="rect32" />
</g>
<line
   class="st3"
   x1="36.504051"
   y1="7.1000004"
   x2="36.504051"
   y2="26.4"
   id="line36" />
</svg>
